<svg width="48" height="48" viewBox="0 0 48 48" fill="none" xmlns="http://www.w3.org/2000/svg">
<path d="M0 12C0 5.37258 5.37258 0 12 0H36C42.6274 0 48 5.37258 48 12V36C48 42.6274 42.6274 48 36 48H12C5.37258 48 0 42.6274 0 36V12Z" fill="#4F46E5"/>
<path d="M0 12C0 5.37258 5.37258 0 12 0H36C42.6274 0 48 5.37258 48 12V36C48 42.6274 42.6274 48 36 48H12C5.37258 48 0 42.6274 0 36V12Z" stroke="#E5E7EB"/>
<path d="M13.5 13.5H34.5C35.3297 13.5 36 14.1703 36 15V16.5C36 17.3297 35.3297 18 34.5 18H13.5C12.6703 18 12 17.3297 12 16.5V15C12 14.1703 12.6703 13.5 13.5 13.5ZM13.5 19.5H34.5V31.5C34.5 33.1547 33.1547 34.5 31.5 34.5H16.5C14.8453 34.5 13.5 33.1547 13.5 31.5V19.5ZM19.5 23.25C19.5 23.6625 19.8375 24 20.25 24H27.75C28.1625 24 28.5 23.6625 28.5 23.25C28.5 22.8375 28.1625 22.5 27.75 22.5H20.25C19.8375 22.5 19.5 22.8375 19.5 23.25Z" fill="white"/>
</svg>
