<svg width="20" height="16" viewBox="0 0 20 16" fill="none" xmlns="http://www.w3.org/2000/svg">
<g clip-path="url(#clip0_1_235)">
<path d="M6.6188 0C6.86255 0 7.06568 0.178125 7.14068 0.4125C7.52505 1.62188 8.65943 2.5 10.0001 2.5C11.3407 2.5 12.4751 1.62188 12.8594 0.4125C12.9344 0.178125 13.1376 0 13.3813 0H13.7751C14.4782 0 15.1563 0.246875 15.6969 0.696875L19.6407 3.98125C19.8469 4.15312 19.9751 4.40312 19.9969 4.67188C20.0188 4.94063 19.9313 5.20625 19.7532 5.40938L18.0032 7.40938C17.6469 7.81875 17.0282 7.86563 16.6094 7.51875L15.0001 6.17812V14C15.0001 15.1031 14.1032 16 13.0001 16H7.00005C5.89693 16 5.00005 15.1031 5.00005 14V6.17812L3.39068 7.51875C2.97505 7.86563 2.3563 7.81875 1.99693 7.40938L0.246928 5.40938C0.0688032 5.20625 -0.0186968 4.94063 0.00317817 4.67188C0.0250532 4.40312 0.153178 4.15312 0.359428 3.98125L4.30318 0.696875C4.8438 0.246875 5.52193 0 6.22505 0H6.6188Z" fill="#4F46E5"/>
</g>
<defs>
<clipPath id="clip0_1_235">
<path d="M0 0H20V16H0V0Z" fill="white"/>
</clipPath>
</defs>
</svg>
