<svg width="19" height="20" viewBox="0 0 19 20" fill="none" xmlns="http://www.w3.org/2000/svg">
<g clip-path="url(#clip0_9_70)">
<g clip-path="url(#clip1_9_70)">
<path d="M14.0391 3.38281C14.5273 2.89453 14.5273 2.10156 14.0391 1.61328C13.5508 1.125 12.7578 1.125 12.2695 1.61328L6.90625 6.98047L4.66406 4.73828C4.17578 4.25 3.38281 4.25 2.89453 4.73828C2.40625 5.22656 2.40625 6.01953 2.89453 6.50781L6.01953 9.63281C6.50781 10.1211 7.30078 10.1211 7.78906 9.63281L14.0391 3.38281ZM17.7891 8.38281C18.2773 7.89453 18.2773 7.10156 17.7891 6.61328C17.3008 6.125 16.5078 6.125 16.0195 6.61328L6.90625 15.7305L2.78906 11.6172C2.30078 11.1289 1.50781 11.1289 1.01953 11.6172C0.53125 12.1055 0.53125 12.8984 1.01953 13.3867L6.01953 18.3867C6.50781 18.875 7.30078 18.875 7.78906 18.3867L17.7891 8.38672V8.38281Z" fill="#16A34A"/>
</g>
</g>
<defs>
<clipPath id="clip0_9_70">
<rect width="17.5" height="20" fill="white" transform="translate(0.65625)"/>
</clipPath>
<clipPath id="clip1_9_70">
<path d="M0.65625 0H18.1562V20H0.65625V0Z" fill="white"/>
</clipPath>
</defs>
</svg>
