<svg width="21" height="20" viewBox="0 0 21 20" fill="none" xmlns="http://www.w3.org/2000/svg">
<g clip-path="url(#clip0_9_61)">
<g clip-path="url(#clip1_9_61)">
<path d="M4.07812 1.25V5H9.07812V1.25C9.07812 0.558594 8.51953 0 7.82812 0H5.32812C4.63672 0 4.07812 0.558594 4.07812 1.25ZM4.07812 6.25C2.00781 6.25 0.328125 7.92969 0.328125 10V18.125C0.328125 19.1602 1.16797 20 2.20312 20H10.9531C11.9883 20 12.8281 19.1602 12.8281 18.125V10C12.8281 7.92969 11.1484 6.25 9.07812 6.25H4.07812ZM6.57812 10C7.40693 10 8.20178 10.3292 8.78783 10.9153C9.37388 11.5013 9.70312 12.2962 9.70312 13.125C9.70312 13.9538 9.37388 14.7487 8.78783 15.3347C8.20178 15.9208 7.40693 16.25 6.57812 16.25C5.74932 16.25 4.95447 15.9208 4.36842 15.3347C3.78237 14.7487 3.45312 13.9538 3.45312 13.125C3.45312 12.2962 3.78237 11.5013 4.36842 10.9153C4.95447 10.3292 5.74932 10 6.57812 10ZM15.3281 1.875C15.3281 1.82031 15.2891 1.75781 15.2422 1.73438L14.0781 1.25L13.5938 0.0859375C13.5703 0.0390625 13.5078 0 13.4531 0C13.3984 0 13.3359 0.0390625 13.3125 0.0859375L12.8281 1.25L11.6641 1.73438C11.6172 1.75781 11.5781 1.82031 11.5781 1.875C11.5781 1.92969 11.6172 1.99219 11.6641 2.01562L12.8281 2.5L13.3125 3.66406C13.3359 3.71094 13.3984 3.75 13.4531 3.75C13.5078 3.75 13.5703 3.71094 13.5938 3.66406L14.0781 2.5L15.2422 2.01562C15.2891 1.99219 15.3281 1.92969 15.3281 1.875ZM18.3125 3.66406C18.3359 3.71094 18.3984 3.75 18.4531 3.75C18.5078 3.75 18.5703 3.71094 18.5938 3.66406L19.0781 2.5L20.2422 2.01562C20.2891 1.99219 20.3281 1.92969 20.3281 1.875C20.3281 1.82031 20.2891 1.75781 20.2422 1.73438L19.0781 1.25L18.5938 0.0859375C18.5703 0.0390625 18.5078 0 18.4531 0C18.3984 0 18.3359 0.0390625 18.3125 0.0859375L17.8281 1.25L16.6641 1.73438C16.6172 1.75781 16.5781 1.82031 16.5781 1.875C16.5781 1.92969 16.6172 1.99219 16.6641 2.01562L17.8281 2.5L18.3125 3.66406ZM18.5938 7.58594C18.5703 7.53906 18.5078 7.5 18.4531 7.5C18.3984 7.5 18.3359 7.53906 18.3125 7.58594L17.8281 8.75L16.6641 9.23437C16.6172 9.25781 16.5781 9.32031 16.5781 9.375C16.5781 9.42969 16.6172 9.49219 16.6641 9.51563L17.8281 10L18.3125 11.1641C18.3359 11.2109 18.3984 11.25 18.4531 11.25C18.5078 11.25 18.5703 11.2109 18.5938 11.1641L19.0781 10L20.2422 9.51563C20.2891 9.49219 20.3281 9.42969 20.3281 9.375C20.3281 9.32031 20.2891 9.25781 20.2422 9.23437L19.0781 8.75L18.5938 7.58594ZM17.8281 5.625C17.8281 5.57031 17.7891 5.50781 17.7422 5.48437L16.5781 5L16.0938 3.83594C16.0703 3.78906 16.0078 3.75 15.9531 3.75C15.8984 3.75 15.8359 3.78906 15.8125 3.83594L15.3281 5L14.1641 5.48437C14.1172 5.50781 14.0781 5.57031 14.0781 5.625C14.0781 5.67969 14.1172 5.74219 14.1641 5.76563L15.3281 6.25L15.8125 7.41406C15.8359 7.46094 15.8984 7.5 15.9531 7.5C16.0078 7.5 16.0703 7.46094 16.0938 7.41406L16.5781 6.25L17.7422 5.76563C17.7891 5.74219 17.8281 5.67969 17.8281 5.625Z" fill="#9333EA"/>
</g>
</g>
<defs>
<clipPath id="clip0_9_61">
<rect width="20" height="20" fill="white" transform="translate(0.328125)"/>
</clipPath>
<clipPath id="clip1_9_61">
<path d="M0.328125 0H20.3281V20H0.328125V0Z" fill="white"/>
</clipPath>
</defs>
</svg>
